<svg width="80" height="80" viewBox="0 0 80 80" fill="none" xmlns="http://www.w3.org/2000/svg">
<g clip-path="url(#clip0_156_2622)">
<rect y="6.10352e-05" width="80" height="80" rx="10" fill="#FFD987"/>
<path d="M61.8241 19.5992C61.823 18.1097 60.6104 16.897 59.1209 16.896L19.9099 16.869L-27.9317 64.7105L15.306 107.948L61.8574 61.5291L61.8241 19.5992Z" fill="black"/>
<path d="M22.0399 46.6194L46.9687 46.6066L46.9817 34.14L59.4438 34.1314L59.4223 59.0602L46.9601 59.0688L22.0357 59.086L22.0399 46.6194Z" fill="white"/>
<path d="M34.2569 44.3107L21.7947 44.3192L21.8119 19.3949L34.2741 19.3863L59.2029 19.3647L59.1943 31.8357L34.2655 31.8485L34.2569 44.3107Z" fill="#FFD987"/>
</g>
<defs>
<clipPath id="clip0_156_2622">
<rect y="6.10352e-05" width="80" height="80" rx="10" fill="white"/>
</clipPath>
</defs>
</svg>
