<svg width="512" height="512" viewBox="0 0 512 512" fill="none" xmlns="http://www.w3.org/2000/svg">
<rect width="512" height="512" fill="#4F4F4F"/>
<g clip-path="url(#clip0_71_3274)">
<path d="M380.994 154.001C380.994 146.951 378.078 142.533 372.433 141.029C371.022 140.653 369.516 140.653 368.011 140.653C336.305 140.653 304.599 140.653 272.799 140.653C268.189 140.653 268.095 140.559 268.095 135.859C268.001 129.373 270.259 124.015 274.304 118.845C288.417 100.984 283.148 75.5102 263.202 64.512C241.281 52.3859 213.244 66.298 209.669 90.9263C208.164 101.454 210.328 111.043 217.102 119.221C221.335 124.391 223.123 130.031 222.935 136.705C222.841 139.995 221.712 140.747 218.701 140.747C186.995 140.653 155.289 140.653 123.489 140.747C121.513 140.747 119.537 140.653 117.656 141.123C112.011 142.533 109 147.045 109 154.001C109 170.451 109 186.901 109 203.352L380.9 203.352C380.994 186.807 380.994 170.451 380.994 154.001Z" fill="#FFD987"/>
<path d="M109 248.378C109 251.48 109.659 252.514 112.952 252.608C119.067 252.796 124.053 250.916 128.757 247.062C150.397 229.672 182.291 240.576 189.723 266.145C194.051 281.185 189.723 294.533 177.869 304.967C169.966 311.829 160.652 314.461 150.114 313.239C142.023 312.299 135.061 309.197 128.946 304.215C124.524 300.549 119.443 299.421 113.892 299.515C111.164 299.609 110.411 300.549 110.411 303.181C110.505 320.195 110.411 337.209 110.411 354.224C110.411 369.076 110.411 383.834 110.411 398.686C110.411 406.676 114.739 411 122.83 411C154.254 411 185.584 411 217.007 411.094C220.3 411.094 221.335 410.248 221.429 406.864C221.523 400.942 219.736 396.054 216.067 391.354C199.32 369.546 209.763 339.089 236.2 331.663C257.84 325.553 281.36 342.285 283.054 364.658C283.807 374.434 281.172 383.082 275.245 390.602C271.199 395.772 268.659 401.318 269.13 407.992C269.224 410.154 269.788 411 272.14 411C304.693 410.906 337.246 411 369.704 410.906C376.572 410.906 380.994 405.642 380.994 397.652C380.994 373.87 380.994 350.087 380.994 326.305C380.994 317.939 381.088 309.573 380.994 301.113C380.994 298.763 381.747 298.011 384.099 297.823C391.155 297.353 396.989 299.609 402.539 303.933C424.084 320.853 454.944 309.667 460.777 282.783C461.247 280.527 461.624 278.365 462 276.109C462 275.451 462 274.699 462 274.041C461.435 271.691 460.965 269.435 460.401 267.085C456.167 250.07 440.267 238.602 422.673 239.636C414.958 240.106 407.996 242.456 402.163 247.438C396.8 252.044 390.779 253.454 384.005 253.078C381.559 252.89 380.9 252.138 380.994 249.788C381.088 240.012 380.994 230.236 380.994 220.46C380.994 214.726 380.994 208.992 380.994 203.258L109.094 203.258C109.094 203.352 109.094 203.446 109.094 203.54C109.094 218.486 109.188 233.432 109 248.378Z" fill="#CFB06E"/>
</g>
<defs>
<clipPath id="clip0_71_3274">
<rect width="351" height="353" fill="white" transform="translate(462 60) rotate(90)"/>
</clipPath>
</defs>
</svg>
